:FULLY-SPECIFIED
:FORCE-ALL-JOINTS-BE-3DOF
:DEGREES
645
root 5.56503 16.4888 -2.97324 16.5133 13.5966 -1.49557
lfemur -18.2259 22.0426 -26.6042
ltibia 35.4048 0 0
lfoot -36.0628 11.1114 0
ltoes 24.2081 0 0
rfemur -56.037 -26.8511 28.2054
rtibia 63.4167 0 0
rfoot -5.36344 -4.08753 0
rtoes 4.99099 0 0
lowerback -0.810467 -3.57406 -5.08253
upperback -2.32629 -4.7778 0.751614
thorax -1.46672 -2.30401 3.61531
lowerneck -9.65995 -7.8515 -0.207133
upperneck 4.33811 -11.0404 7.63983
head 3.63589 -5.16554 1.86106
lclavicle -4.09975e-14 -1.94354e-16 0
lhumerus -42.3071 -68.242 122.581
lradius 73.917 0 0
lwrist 24.6528 0 0
lhand -4.59722 2.51597 0
lfingers 7.12502 0 0
lthumb 21.1804 31.3786 0
rclavicle -4.09975e-14 -1.94354e-16 0
rhumerus -33.206 4.04161 -74.854
rradius 73.9791 0 0
rwrist -20.2733 0 0
rhand -28.1041 -38.0658 0
rfingers 7.12502 0 0
rthumb -1.48644 -788.039 0
646
root 5.55522 16.4574 -2.90493 16.8387 12.4962 -1.31151
lfemur -18.4788 22.594 -26.8986
ltibia 35.9111 0 0
lfoot -36.1602 11.1104 0
ltoes 23.6872 0 0
rfemur -57.219 -27.4049 29.5563
rtibia 64.0804 0 0
rfoot -6.03555 -3.69008 0
rtoes 4.22027 0 0
lowerback -0.831415 -3.63461 -5.14967
upperback -2.25788 -4.85753 0.601483
thorax -1.38417 -2.3475 3.49269
lowerneck -9.62892 -7.79666 -0.267171
upperneck 4.06478 -10.943 7.6926
head 3.53793 -5.12701 1.90035
lclavicle -3.36443e-14 4.37328e-15 0
lhumerus -42.8045 -68.6928 123.405
lradius 73.6809 0 0
lwrist 24.7413 0 0
lhand -4.71849 2.81574 0
lfingers 7.12502 0 0
lthumb 21.0638 31.6913 0
rclavicle -3.36443e-14 4.37328e-15 0
rhumerus -34.5411 2.65298 -75.448
rradius 71.6647 0 0
rwrist -19.2264 0 0
rhand -28.4362 -39.4235 0
rfingers 7.12502 0 0
rthumb -1.80719 -789.394 0
647
root 5.5454 16.426 -2.83662 17.1642 11.3959 -1.12746
lfemur -18.7316 23.1454 -27.1929
ltibia 36.4174 0 0
lfoot -36.2577 11.1094 0
ltoes 23.1663 0 0
rfemur -58.401 -27.9588 30.9073
rtibia 64.7442 0 0
rfoot -6.70767 -3.29264 0
rtoes 3.44956 0 0
lowerback -0.852363 -3.69516 -5.21681
upperback -2.18947 -4.93726 0.451351
thorax -1.30163 -2.391 3.37007
lowerneck -9.59789 -7.74183 -0.32721
upperneck 3.79144 -10.8456 7.74538
head 3.43997 -5.08848 1.93964
lclavicle -2.62911e-14 8.94092e-15 0
lhumerus -43.3018 -69.1437 124.229
lradius 73.4449 0 0
lwrist 24.8299 0 0
lhand -4.83975 3.1155 0
lfingers 7.12502 0 0
lthumb 20.9473 32.0041 0
rclavicle -2.62911e-14 8.94092e-15 0
rhumerus -35.8762 1.26435 -76.0421
rradius 69.3503 0 0
rwrist -18.1794 0 0
rhand -28.7684 -40.7812 0
rfingers 7.12502 0 0
rthumb -2.12795 -790.749 0
648
root 5.53589 16.3957 -2.77049 17.4792 10.3306 -0.949274
lfemur -18.9763 23.6793 -27.4778
ltibia 36.9076 0 0
lfoot -36.3521 11.1084 0
ltoes 22.662 0 0
rfemur -59.5453 -28.495 32.2151
rtibia 65.3868 0 0
rfoot -7.35833 -2.90789 0
rtoes 2.70344 0 0
lowerback -0.872643 -3.75378 -5.28181
upperback -2.12324 -5.01444 0.306012
thorax -1.22173 -2.43311 3.25136
lowerneck -9.56784 -7.68875 -0.385332
upperneck 3.52683 -10.7513 7.79646
head 3.34513 -5.05118 1.97767
lclavicle -1.91726e-14 1.33628e-14 0
lhumerus -43.7832 -69.5801 125.027
lradius 73.2163 0 0
lwrist 24.9156 0 0
lhand -4.95715 3.4057 0
lfingers 7.12502 0 0
lthumb 20.8346 32.3068 0
rclavicle -1.91726e-14 1.33628e-14 0
rhumerus -37.1686 -0.0799702 -76.6172
rradius 67.1097 0 0
rwrist -17.1659 0 0
rhand -29.0899 -42.0955 0
rfingers 7.12502 0 0
rthumb -2.43847 -792.061 0
